<svg width="18" height="22" viewBox="0 0 18 22" fill="none" xmlns="http://www.w3.org/2000/svg">
<rect width="18" height="22" fill="#424242"/>
<g clip-path="url(#clip0_1683_42383)">
<rect width="1728" height="4316" transform="translate(-1419 -119)" fill="#0F0F0F"/>
<g filter="url(#filter0_b_1683_42383)">
<rect width="1728" height="100" transform="translate(-1419 -39)" fill="#0F0F0F" fill-opacity="0.9"/>
<rect x="-13.0422" y="-11" width="44" height="44" rx="8" fill="#1E1E1E"/>
<path d="M14.7886 20.5523C13.6579 21.6484 12.4233 21.4753 11.2349 20.9561C9.97721 20.4253 8.82339 20.4023 7.4965 20.9561C5.83501 21.6715 4.95811 21.4638 3.96583 20.5523C-1.66479 14.7486 -0.834041 5.91036 5.55809 5.58729C7.11574 5.66806 8.20033 6.44111 9.11184 6.51034C10.4733 6.23343 11.7772 5.43729 13.231 5.54114C14.9732 5.6796 16.2886 6.37188 17.1539 7.618C13.554 9.77564 14.4079 14.5178 17.7078 15.8447C17.0501 17.5754 16.1963 19.2946 14.7771 20.5638L14.7886 20.5523ZM8.99646 5.51806C8.82339 2.94506 10.9118 0.822036 13.3117 0.614349C13.6463 3.59119 10.6118 5.80652 8.99646 5.51806Z" fill="white"/>
</g>
</g>
<defs>
<filter id="filter0_b_1683_42383" x="-1519" y="-139" width="1928" height="300" filterUnits="userSpaceOnUse" color-interpolation-filters="sRGB">
<feFlood flood-opacity="0" result="BackgroundImageFix"/>
<feGaussianBlur in="BackgroundImageFix" stdDeviation="50"/>
<feComposite in2="SourceAlpha" operator="in" result="effect1_backgroundBlur_1683_42383"/>
<feBlend mode="normal" in="SourceGraphic" in2="effect1_backgroundBlur_1683_42383" result="shape"/>
</filter>
<clipPath id="clip0_1683_42383">
<rect width="1728" height="4316" fill="white" transform="translate(-1419 -119)"/>
</clipPath>
</defs>
</svg>
