<svg width="148" height="37" viewBox="0 0 148 37" fill="none" xmlns="http://www.w3.org/2000/svg">
<path d="M94.6287 6.41666C98.0314 6.41666 99.5146 5.0066 99.5146 1.60416C99.5146 5.0066 100.987 6.41666 104.4 6.41666C100.987 6.41666 99.5146 7.86736 99.5146 11.2292C99.5146 7.86736 98.0314 6.41666 94.6287 6.41666Z" fill="#ADFF00" stroke="#ADFF00" stroke-width="1.5" stroke-linejoin="round"/>
<path d="M138.124 36.4999C134.09 36.4999 131.065 35.134 129.258 32.5264C127.997 30.7466 127.325 28.4701 127.325 25.6969C127.325 22.8823 128.081 20.523 129.342 18.7431C131.191 16.1355 134.258 14.7282 137.83 14.7282C144.302 14.7282 147.916 18.7431 147.916 25.6141V27.2697H133.586C133.754 28.4287 134.048 29.3807 134.553 30.0843C135.267 31.0777 136.36 31.6158 137.998 31.6158C139.637 31.6158 140.94 30.9121 141.444 29.5048H147.958C147.243 33.6853 143.377 36.4999 138.124 36.4999ZM133.67 23.3376H141.696C141.612 20.8127 140.268 19.4882 137.83 19.4882C136.444 19.4882 135.267 20.0263 134.511 21.1438C134.09 21.7233 133.796 22.4683 133.67 23.3376Z" fill="white"/>
<path d="M106.455 35.8791V15.3491H112.969L111.414 20.7713H112.254C113.431 16.7978 115.742 14.7282 119.188 14.7282C123.936 14.7282 126.416 17.5014 126.416 22.7581V35.8791H119.902V24.124C119.902 21.8475 118.894 20.6057 116.793 20.6057C114.439 20.6057 112.969 22.3028 112.969 25.1588V35.8791H106.455Z" fill="white"/>
<path d="M97.0396 35.8791V15.3492H103.553V35.8791H97.0396Z" fill="white"/>
<path d="M66.3023 35.8791L62.1001 15.3492H68.5295L71.1769 30.043L71.219 32.2781H72.0594L72.1014 30.043L74.3707 15.3492H83.5315L85.7587 30.043L85.8008 32.2781H86.6412L86.6832 30.043L89.3727 15.3492H95.8021L91.5578 35.8791H81.6405L79.4133 21.2681L79.3713 18.9916H78.5309L78.4468 21.2681L76.2617 35.8791H66.3023Z" fill="white"/>
<path d="M53.7298 36.5C48.3089 36.5 45.5354 33.7682 45.5354 28.7598V20.523H41.7534V15.3491H45.5354V12.2862L52.0489 9.43018V15.3491H62.2183V20.523H52.0489V28.6357C52.0489 30.2499 52.7633 30.9949 53.8139 30.9949C55.1166 30.9949 55.6629 30.2499 55.6629 28.3459V25.3658H62.2183V28.5115C62.2183 33.437 58.8986 36.5 53.7298 36.5Z" fill="white"/>
<path d="M21.9688 35.8791V15.3491H28.4822L26.9274 20.7713H27.7678C28.9445 16.7978 31.2557 14.7282 34.7016 14.7282C39.4501 14.7282 41.9294 17.5014 41.9294 22.7581V35.8791H35.4159V24.124C35.4159 21.8475 34.4074 20.6057 32.3063 20.6057C29.953 20.6057 28.4822 22.3028 28.4822 25.1588V35.8791H21.9688Z" fill="white"/>
<path d="M10.7998 36.4999C6.76562 36.4999 3.74 35.134 1.93303 32.5264C0.672359 30.7466 0 28.4701 0 25.6969C0 22.8823 0.756404 20.523 2.01708 18.7431C3.86607 16.1355 6.9337 14.7282 10.5056 14.7282C16.9771 14.7282 20.591 18.7431 20.591 25.6141V27.2697H6.26135C6.42944 28.4287 6.72359 29.3807 7.22786 30.0843C7.94224 31.0777 9.03483 31.6158 10.6737 31.6158C12.3126 31.6158 13.6153 30.9121 14.1195 29.5048H20.633C19.9186 33.6853 16.0526 36.4999 10.7998 36.4999ZM6.34539 23.3376H14.3717C14.2876 20.8127 12.9429 19.4882 10.5056 19.4882C9.11887 19.4882 7.94224 20.0263 7.18584 21.1438C6.76562 21.7233 6.47146 22.4683 6.34539 23.3376Z" fill="white"/>
</svg>
